<mxfile host="app.diagrams.net" agent="Mozilla/5.0 (Windows NT 10.0; Win64; x64) AppleWebKit/537.36 (KHTML, like Gecko) Chrome/133.0.0.0 Safari/537.36 Edg/133.0.0.0" version="26.0.16">
  <diagram id="Ll6cXDiC2Qo7LsIAdOJ-" name="第 1 页">
    <mxGraphModel dx="1579" dy="869" grid="1" gridSize="10" guides="1" tooltips="1" connect="1" arrows="1" fold="1" page="1" pageScale="1" pageWidth="827" pageHeight="1169" math="0" shadow="0">
      <root>
        <mxCell id="0" />
        <mxCell id="1" parent="0" />
        <mxCell id="xfwqslkf1F_73qSH5EB0-16" style="edgeStyle=orthogonalEdgeStyle;rounded=0;orthogonalLoop=1;jettySize=auto;html=1;" parent="1" source="GdxBve6bO89XHhxKQTAj-3" target="GdxBve6bO89XHhxKQTAj-9" edge="1">
          <mxGeometry relative="1" as="geometry" />
        </mxCell>
        <mxCell id="GdxBve6bO89XHhxKQTAj-3" value="Cloud&#xa;Scheduler" style="sketch=0;html=1;verticalAlign=top;labelPosition=center;verticalLabelPosition=bottom;align=center;spacingTop=-6;fontSize=11;fontStyle=1;fontColor=#999999;shape=image;aspect=fixed;imageAspect=0;image=data:image/svg+xml,PHN2ZyB4bWxucz0iaHR0cDovL3d3dy53My5vcmcvMjAwMC9zdmciIHhtbG5zOnY9Imh0dHBzOi8vdmVjdGEuaW8vbmFubyIgd2lkdGg9IjM2MC4zMDM3NjY4NjA4MzYzIiBoZWlnaHQ9IjM3OC4wNTExNTgwNzc0MDg4IiB2aWV3Qm94PSItMC4wMDAxNjI0MjExNDM2MTM3NTU3IC0wLjAwMDEwMDAwNTk0OTIwNzExNTkyIDk1LjMzMDI2MTIzMDQ2ODc1IDEwMC4wMjYxMDAxNTg2OTE0Ij4mI3hhOzxzdHlsZSB0eXBlPSJ0ZXh0L2NzcyI+JiN4YTsJLnN0MHtmaWxsOiM0Mjg1ZjQ7fSYjeGE7CS5zdDF7ZmlsbDojYWVjYmZhO30mI3hhOwkuc3Qye2ZpbGw6IzY2OWRmNjt9JiN4YTs8L3N0eWxlPiYjeGE7CTxwYXRoIGNsYXNzPSJzdDAiIGQ9Ik03OS45NzEgNzcuNzE1bC03LjM1OSA3LjQ4OCA4LjYzOSA4LjQ5IDcuMzU5LTcuNDg4em0tNjUuMDk2LjA2MWwtOC42NDEgOC40OTIgNy4zNjEgNy40ODggOC42MzktOC40OXoiLz4mI3hhOwk8cGF0aCBjbGFzcz0ic3QxIiBkPSJNNzkuNTUzLjIyMWE1LjI1IDUuMjUgMCAwIDAtMy42NiA4Ljk4NEw4Ni4zODkgMTkuNThhNS4yNSA1LjI1IDAgMCAwIDguOTQxLTMuNzY1IDUuMjUgNS4yNSAwIDAgMC0xLjU2LTMuNzA0TDgzLjI3NSAxLjczOEE1LjI1IDUuMjUgMCAwIDAgNzkuNTUzLjIyMXpNMTUuOTE2IDBhNS4yNSA1LjI1IDAgMCAwLTMuNzIzIDEuNTE2TDEuNjk5IDExLjg5MWE1LjI1IDUuMjUgMCAwIDAtLjA0MyA3LjQyNCA1LjI1IDUuMjUgMCAwIDAgNy40MjQuMDQzTDE5LjU3NiA4Ljk4MkE1LjI1IDUuMjUgMCAwIDAgMTUuOTE2IDB6Ii8+JiN4YTsJPHBhdGggY2xhc3M9InN0MCIgZD0iTTQ4LjEzOCAyNi4yNGMxMy4zNDcgMCAyNS40MzIgMTEuMTM2IDI1LjMxIDI2LjQ4MSAwIDE1LjExLTEyLjI2NyAyNS42NzMtMjUuMTg5IDI1LjY3My0xMS4xNDkgMC0xOC4zMTctNS4xNzEtMjEuOTYtMTAuNzM4bDIxLjgzOS0xNS4wOTd6Ii8+JiN4YTsJPHBhdGggY2xhc3M9InN0MiIgZD0iTTgxLjI1IDkzLjY5M2w0LjY2NCA0LjU4NmE1LjI1IDUuMjUgMCAxIDAgNy4zNjEtNy40OWwtNC42NjYtNC41ODR6TTYuMjM0IDg2LjI2OEwxLjU3IDkwLjg1MWE1LjI1IDUuMjUgMCAwIDAtLjA2NSA3LjQyNCA1LjI1IDUuMjUgMCAwIDAgNy40MjQuMDY0bDQuNjY2LTQuNTg0ek00Ny4zNzEgNS41NzhDMjEuMzQ5IDUuNTc4LjE0NiAyNi43NzkuMTQ2IDUyLjgwMXMyMS4yMDMgNDcuMjI1IDQ3LjIyNSA0Ny4yMjUgNDcuMjI1LTIxLjIwMyA0Ny4yMjUtNDcuMjI1UzczLjM5MyA1LjU3OCA0Ny4zNzEgNS41Nzh6bTAgMTBhMzcuMTUgMzcuMTUgMCAwIDEgMzcuMjI1IDM3LjIyM2MwIDIwLjYxNy0xNi42MDcgMzcuMjI1LTM3LjIyNSAzNy4yMjVTMTAuMTQ2IDczLjQxOCAxMC4xNDYgNTIuODAxYTM3LjE1IDM3LjE1IDAgMCAxIDM3LjIyNS0zNy4yMjN6Ii8+JiN4YTs8L3N2Zz4=;" parent="1" vertex="1">
          <mxGeometry x="140" y="90" width="40" height="42" as="geometry" />
        </mxCell>
        <mxCell id="xfwqslkf1F_73qSH5EB0-15" value="" style="edgeStyle=orthogonalEdgeStyle;rounded=0;orthogonalLoop=1;jettySize=auto;html=1;entryX=0.5;entryY=0;entryDx=0;entryDy=0;" parent="1" source="GdxBve6bO89XHhxKQTAj-4" target="xfwqslkf1F_73qSH5EB0-13" edge="1">
          <mxGeometry relative="1" as="geometry" />
        </mxCell>
        <mxCell id="GdxBve6bO89XHhxKQTAj-4" value="Dev&lt;div&gt;&lt;br&gt;&lt;/div&gt;" style="sketch=0;html=1;verticalAlign=top;labelPosition=center;verticalLabelPosition=bottom;align=center;spacingTop=-6;fontSize=11;fontStyle=1;fontColor=#999999;shape=image;aspect=fixed;imageAspect=0;image=data:image/svg+xml,PHN2ZyB4bWxucz0iaHR0cDovL3d3dy53My5vcmcvMjAwMC9zdmciIHhtbG5zOnY9Imh0dHBzOi8vdmVjdGEuaW8vbmFubyIgd2lkdGg9IjM2NS40NjQ5OTY3NzA0MjQ5MyIgaGVpZ2h0PSIzNzkuMjIyOTk0NDYzNTc3OTUiIHZpZXdCb3g9IjAgMCA5Ni42OTU5OTkxNDU1MDc4MSAxMDAuMzM1OTk4NTM1MTU2MjUiPiYjeGE7PHN0eWxlIHR5cGU9InRleHQvY3NzIj4mI3hhOwkuc3Qwe2ZpbGw6IzQyODVmNDt9JiN4YTsJLnN0MXtmaWxsOiNhZWNiZmE7fSYjeGE7PC9zdHlsZT4mI3hhOwk8cGF0aCBjbGFzcz0ic3QwIiBkPSJNMjkuNzk0IDEwMC4zMzZMNDYuOTIgNTAuMTY4aDQ5Ljc3NnpNMCA5OS42NzFsMTIuOTc2LTQ5LjUwMkgyOS4yMkwxNi44OTcgOTIuMDU0eiIvPiYjeGE7CTxwYXRoIGNsYXNzPSJzdDEiIGQ9Ik0yOS43OTQgMEw0Ni45MiA1MC4xNjhoNDkuNzc2ek0wIC42NjZsMTIuOTc2IDQ5LjUwMkgyOS4yMkwxNi44OTcgOC4yODN6Ii8+JiN4YTs8L3N2Zz4=;" parent="1" vertex="1">
          <mxGeometry x="330.5" y="380" width="42" height="42" as="geometry" />
        </mxCell>
        <mxCell id="GdxBve6bO89XHhxKQTAj-5" value="Artifact&#xa;Registry" style="sketch=0;html=1;verticalAlign=top;labelPosition=center;verticalLabelPosition=bottom;align=center;spacingTop=-6;fontSize=11;fontStyle=1;fontColor=#999999;shape=image;aspect=fixed;imageAspect=0;image=data:image/svg+xml,PHN2ZyB4bWxucz0iaHR0cDovL3d3dy53My5vcmcvMjAwMC9zdmciIGlkPSJzdmc4MjciIHZlcnNpb249IjEuMSIgdmlld0JveD0iMCAwIDIwNS41MTIyOCAxODAuNTE4MjUiIGhlaWdodD0iMTgwLjUxODI1bW0iIHdpZHRoPSIyMDUuNTEyMjhtbSI+JiN4YTsgICYjeGE7ICA8ZGVmcyBpZD0iZGVmczgyNCIvPiYjeGE7ICA8ZyB0cmFuc2Zvcm09InRyYW5zbGF0ZSgtNC42MDIwNzI4LC01Ni43NjcxMjYpIiBpZD0ibGF5ZXIxIj4mI3hhOyAgICA8cGF0aCBkPSJtIDE0Mi4zMDMzMiwyMDIuNTM2NzUgMjYuNjMwNzgsLTE0Ljc0MDkzIHYgLTI5LjExOTQ4IGwgLTI2LjYzMDc4LDE0Ljg2ODYzIHogbSAtNC44MzQ4OSwwIC0yNi42MzA3OCwtMTQuNzQwOTMgdiAtMjkuMTE5NDggbCAyNi42MzA3OCwxNC44Njg2MyB6IG0gLTI3LjM3NTc4LC01My4zNDI2NCAyNi42MzA3NywtMTQuNzQwOTMgViAxMDUuMzMzNyBsIC0yNi42MzA3NywxNC44Njg2MyB6IG0gLTQuODM0OSwwIC0yNi42MzA3NzcsLTE0Ljc0MDkzIFYgMTA1LjMzMzcgbCAyNi42MzA3NzcsMTQuODY4NjMgeiBtIC0yNy4zNzU3ODgsNTMuMzQyNjQgMjYuNjMwNzc4LC0xNC43NDA5MyB2IC0yOS4xMTk0OCBsIC0yNi42MzA3NzgsMTQuODY4NjMgeiBtIC00LjgzNDg5MywwIC0yNi42MzA3NzksLTE0Ljc0MDkzIHYgLTI5LjExOTQ4IGwgMjYuNjMwNzc5LDE0Ljg2ODYzIHogTSAyMTAuMTE0MzYsMTg1LjQ1NzQzIFYgMTA4LjU1NzM1IEwgMTg5LjY4MTczLDk2LjcxMDk4MSBWIDE5Ny4zMjgwMiBaIG0gLTIwNS41MTIyODcyLDAgViAxMDguNTU3MzUgTCAyNS4wMzQ2OTYsOTYuNzEwOTgxIFYgMTk3LjMyODAyIFoiIHN0eWxlPSJvcGFjaXR5OjE7ZmlsbDojMzM2N2Q2O2ZpbGwtb3BhY2l0eToxO3N0cm9rZTpub25lO3N0cm9rZS13aWR0aDowLjI2NDU4M3B4O3N0cm9rZS1saW5lY2FwOmJ1dHQ7c3Ryb2tlLWxpbmVqb2luOm1pdGVyO3N0cm9rZS1vcGFjaXR5OjEiIGlkPSJwYXRoOTY3LTAtNiIvPiYjeGE7ICAgIDxwYXRoIGQ9Im0gMTM5Ljc5MjI1LDE2OC4yODM3OSAtMjYuMDI5NjQsLTE0LjUxMjkzIDI2LjAyOTY0LC0xNC40MTkzIDI2LjIxNjg5LDE0LjQxOTMgeiBNIDEwNy41ODE1NywxMTQuOTQxMTUgODEuNTUxOTM0LDEwMC40MjgyMiAxMDcuNTgxNTcsODYuMDA4OTE4IDEzMy43OTg0NiwxMDAuNDI4MjIgWiBtIC0zMi4yMTA2ODUsNTMuMzQyNjQgLTI2LjAyOTYzNCwtMTQuNTEyOTMgMjYuMDI5NjM0LC0xNC40MTkzIDI2LjIxNjg5NSwxNC40MTkzIHogbSA4Ni43OTQ3MDUsNjkuMDAxNTkgNDcuOTQ4NzcsLTI3Ljc4NzQ2IHYgLTI0LjA0MDQ5IGwgLTQ3Ljk0ODc3LDI3Ljg1ODIyIHogTSAyMTAuMTE0MzYsODQuNTUyNTU3IDE2Mi4xNjU1OSw1Ni43NjcxMjYgdiAyMy45NjU5MjEgbCA0Ny45NDg3NywyNy44MjQzMDMgeiBNIDUyLjU1MDgzNSwyMzcuMjg1MzggNC42MDIwNzI4LDIwOS40OTc5MiBWIDE4NS40NTc0MyBMIDUyLjU1MDgzNSwyMTMuMzE1NjUgWiBNIDQuNjAyMDcyOCw4NC41NTI1NTcgNTIuNTUwODM1LDU2Ljc2NzEyNiBWIDgwLjczMzA0NyBMIDQuNjAyMDcyOCwxMDguNTU3MzUgWiIgc3R5bGU9Im9wYWNpdHk6MTtmaWxsOiM1Yzg1ZGU7ZmlsbC1vcGFjaXR5OjE7c3Ryb2tlOm5vbmU7c3Ryb2tlLXdpZHRoOjAuMjY0NTgzcHg7c3Ryb2tlLWxpbmVjYXA6YnV0dDtzdHJva2UtbGluZWpvaW46bWl0ZXI7c3Ryb2tlLW9wYWNpdHk6MSIgaWQ9InBhdGg5NjktOCIvPiYjeGE7ICA8L2c+JiN4YTs8L3N2Zz4=;" parent="1" vertex="1">
          <mxGeometry x="444" y="350" width="42" height="37" as="geometry" />
        </mxCell>
        <mxCell id="GdxBve6bO89XHhxKQTAj-7" value="Cloud&#xa;Storage" style="sketch=0;html=1;verticalAlign=top;labelPosition=center;verticalLabelPosition=bottom;align=center;spacingTop=-6;fontSize=11;fontStyle=1;fontColor=#999999;shape=image;aspect=fixed;imageAspect=0;image=data:image/svg+xml,PHN2ZyB4bWxucz0iaHR0cDovL3d3dy53My5vcmcvMjAwMC9zdmciIHhtbG5zOnY9Imh0dHBzOi8vdmVjdGEuaW8vbmFubyIgd2lkdGg9IjIwIiBoZWlnaHQ9IjE2IiB2aWV3Qm94PSIwIDAgMjAgMTYiPiYjeGE7CTxzdHlsZSB0eXBlPSJ0ZXh0L2NzcyI+JiN4YTsJLnN0MHtmaWxsOiM0Mjg1ZjQ7fSYjeGE7CS5zdDF7ZmlsbDojNjY5ZGY2O30mI3hhOwkuc3Qye2ZpbGw6I2FlY2JmYTt9JiN4YTsJLnN0M3tmaWxsOiNmZmY7fSYjeGE7CTwvc3R5bGU+JiN4YTsJPHBhdGggY2xhc3M9InN0MiIgZD0iTTAgMGgyMHY3SDB6Ii8+JiN4YTsJPHBhdGggY2xhc3M9InN0MSIgZD0iTTE4IDBoMnY3aC0yeiIvPiYjeGE7CTxwYXRoIGNsYXNzPSJzdDAiIGQ9Ik0xOCA3bDItN2gtMnoiLz4mI3hhOwk8cGF0aCBjbGFzcz0ic3QxIiBkPSJNMCAwaDJ2N0gweiIvPiYjeGE7CTxnIGNsYXNzPSJzdDMiPiYjeGE7CQk8cGF0aCBkPSJNNCAzaDZ2MUg0eiIvPiYjeGE7CQk8cmVjdCB4PSIxMyIgeT0iMiIgd2lkdGg9IjMiIGhlaWdodD0iMyIgcng9IjEuNSIvPiYjeGE7CTwvZz4mI3hhOwk8cGF0aCBjbGFzcz0ic3QyIiBkPSJNMCA5aDIwdjdIMHoiLz4mI3hhOwk8cGF0aCBjbGFzcz0ic3QxIiBkPSJNMTggOWgydjdoLTJ6Ii8+JiN4YTsJPHBhdGggY2xhc3M9InN0MCIgZD0iTTE4IDE2bDItN2gtMnoiLz4mI3hhOwk8cGF0aCBjbGFzcz0ic3QxIiBkPSJNMCA5aDJ2N0gweiIvPiYjeGE7CTxnIGNsYXNzPSJzdDMiPiYjeGE7CQk8cGF0aCBkPSJNNCAxMmg2djFINHoiLz4mI3hhOwkJPHJlY3QgeD0iMTMiIHk9IjExIiB3aWR0aD0iMyIgaGVpZ2h0PSIzIiByeD0iMS41Ii8+JiN4YTsJPC9nPiYjeGE7PC9zdmc+;" parent="1" vertex="1">
          <mxGeometry x="518" y="200" width="42" height="34" as="geometry" />
        </mxCell>
        <mxCell id="GdxBve6bO89XHhxKQTAj-8" value="Cloud&#xa;Build" style="sketch=0;html=1;verticalAlign=top;labelPosition=center;verticalLabelPosition=bottom;align=center;spacingTop=-6;fontSize=11;fontStyle=1;fontColor=#999999;shape=image;aspect=fixed;imageAspect=0;image=data:image/svg+xml,PHN2ZyB4bWxucz0iaHR0cDovL3d3dy53My5vcmcvMjAwMC9zdmciIHhtbG5zOnY9Imh0dHBzOi8vdmVjdGEuaW8vbmFubyIgd2lkdGg9IjE3LjMyOTk5OTkyMzcwNjA1NSIgaGVpZ2h0PSIxOS42MTAwMDA2MTAzNTE1NjIiIHZpZXdCb3g9IjAgMCAxNy4zMjk5OTk5MjM3MDYwNTUgMTkuNjEwMDAwNjEwMzUxNTYyIj4mI3hhOwk8c3R5bGUgdHlwZT0idGV4dC9jc3MiPiYjeGE7CS5zdDB7ZmlsbDojNDI4NWY0O30mI3hhOwkuc3Qxe2ZpbGw6IzY2OWRmNjt9JiN4YTsJLnN0MntmaWxsOiNhZWNiZmE7fSYjeGE7CTwvc3R5bGU+JiN4YTsJPHBhdGggY2xhc3M9InN0MCIgZD0iTTEyLjE4IDcuOThMMTEgNy4yOWwtMy41MiA2LjEgMS4xOC42OCAzLjUyLTIuMDN6IiBmaWxsPSIjNDI4NWY0Ii8+JiN4YTsJPHBhdGggY2xhc3M9InN0MSIgZD0iTTYuMzIgMTIuNzJsMy41My02LjA5LTEuMTktLjY5LTMuNTIgMi4wNHY0LjA2eiIgZmlsbD0iIzY2OWRmNiIvPiYjeGE7CTxwYXRoIGNsYXNzPSJzdDIiIGQ9Ik0zLjc1IDcuOThMMCA1LjgxdjkuMmw3Ljk3IDQuNnYtNC4zM2wtNC4yMi0yLjQ0em05LjEzLTEuMmwzLjc2LTIuMTdMOC42NiAwIC42OCA0LjYxbDMuNzYgMi4xNyA0LjIyLTIuNDR6TTkuMzUgMTkuNjFsNy45OC00LjZ2LTkuMmwtMy43NiAyLjE3djQuODZsLTQuMjIgMi40NHoiIGZpbGw9IiNhZWNiZmEiLz4mI3hhOzwvc3ZnPg==;" parent="1" vertex="1">
          <mxGeometry x="381" y="200" width="36" height="42" as="geometry" />
        </mxCell>
        <mxCell id="GdxBve6bO89XHhxKQTAj-14" style="edgeStyle=orthogonalEdgeStyle;rounded=0;orthogonalLoop=1;jettySize=auto;html=1;entryX=0.5;entryY=0;entryDx=0;entryDy=0;" parent="1" source="GdxBve6bO89XHhxKQTAj-9" target="GdxBve6bO89XHhxKQTAj-8" edge="1">
          <mxGeometry relative="1" as="geometry" />
        </mxCell>
        <mxCell id="GdxBve6bO89XHhxKQTAj-9" value="Pub/Sub" style="sketch=0;html=1;verticalAlign=top;labelPosition=center;verticalLabelPosition=bottom;align=center;spacingTop=-6;fontSize=11;fontStyle=1;fontColor=#999999;shape=image;aspect=fixed;imageAspect=0;image=data:image/svg+xml,PHN2ZyB4bWxucz0iaHR0cDovL3d3dy53My5vcmcvMjAwMC9zdmciIHhtbG5zOnY9Imh0dHBzOi8vdmVjdGEuaW8vbmFubyIgd2lkdGg9IjE4LjMxOTk5OTY5NDgyNDIyIiBoZWlnaHQ9IjIwLjAwMDAwMTkwNzM0ODYzMyIgdmlld0JveD0iMCAwIDE4LjMxOTk5OTY5NDgyNDIyIDIwLjAwMDAwMTkwNzM0ODYzMyI+JiN4YTsJPHN0eWxlIHR5cGU9InRleHQvY3NzIj4mI3hhOwkuc3Qwe2ZpbGw6IzY2OWRmNjt9JiN4YTsJLnN0MXtmaWxsOiM0Mjg1ZjQ7fSYjeGE7CS5zdDJ7ZmlsbDojYWVjYmZhO30mI3hhOwk8L3N0eWxlPiYjeGE7CTxkZWZzPiYjeGE7CQk8ZmlsdGVyIGlkPSJBIiB4PSI0LjY0IiB5PSI0LjE5IiB3aWR0aD0iMTQuNzMiIGhlaWdodD0iMTIuNzYiIGZpbHRlclVuaXRzPSJ1c2VyU3BhY2VPblVzZSIgY29sb3ItaW50ZXJwb2xhdGlvbi1maWx0ZXJzPSJzUkdCIj4mI3hhOwkJCTxmZUZsb29kIGZsb29kLWNvbG9yPSIjZmZmIi8+JiN4YTsJCQk8ZmVCbGVuZCBpbj0iU291cmNlR3JhcGhpYyIvPiYjeGE7CQk8L2ZpbHRlcj4mI3hhOwkJPG1hc2sgaWQ9IkIiIHg9IjQuNjQiIHk9IjQuMTkiIHdpZHRoPSIxNC43MyIgaGVpZ2h0PSIxMi43NiIgbWFza1VuaXRzPSJ1c2VyU3BhY2VPblVzZSI+JiN4YTsJCQk8Y2lyY2xlIGN4PSIxMiIgY3k9IjEyLjIzIiByPSIzLjU4IiBmaWx0ZXI9InVybCgjQSkiLz4mI3hhOwkJPC9tYXNrPiYjeGE7CTwvZGVmcz4mI3hhOwk8ZyBjbGFzcz0ic3QwIj4mI3hhOwkJPGNpcmNsZSBjeD0iMTYuMTMiIGN5PSI2LjIxIiByPSIxLjcyIi8+JiN4YTsJCTxjaXJjbGUgY3g9IjIuMTkiIGN5PSI2LjIxIiByPSIxLjcyIi8+JiN4YTsJCTxjaXJjbGUgY3g9IjkuMTYiIGN5PSIxOC4yOCIgcj0iMS43MiIvPiYjeGE7CTwvZz4mI3hhOwk8ZyBtYXNrPSJ1cmwoI0IpIiB0cmFuc2Zvcm09InRyYW5zbGF0ZSgtMi44NCAtMikiPiYjeGE7CQk8cGF0aCB0cmFuc2Zvcm09Im1hdHJpeCguNSAtLjg3IC44NyAuNSAtNC41OSAyMC41MykiIGQ9Ik0xNC42OSAxMC4yMmgxLjU5djguMDRoLTEuNTl6IiBjbGFzcz0ic3QxIi8+JiN4YTsJCTxwYXRoIHRyYW5zZm9ybT0icm90YXRlKDMzMCA4LjUyMyAxNC4yNDQpIiBkPSJNNC40OSAxMy40NWg4LjA0djEuNTlINC40OXoiIGNsYXNzPSJzdDEiLz4mI3hhOwkJPHBhdGggZD0iTTExLjIgNC4xOWgxLjU5djguMDRIMTEuMnoiIGNsYXNzPSJzdDEiLz4mI3hhOwk8L2c+JiN4YTsJPGcgY2xhc3M9InN0MiI+JiN4YTsJCTxjaXJjbGUgY3g9IjkuMTYiIGN5PSIxMC4yMyIgcj0iMi43OCIvPiYjeGE7CQk8Y2lyY2xlIGN4PSIyLjE5IiBjeT0iMTQuMjUiIHI9IjIuMTkiLz4mI3hhOwkJPGNpcmNsZSBjeD0iMTYuMTMiIGN5PSIxNC4yNSIgcj0iMi4xOSIvPiYjeGE7CQk8Y2lyY2xlIGN4PSI5LjE2IiBjeT0iMi4xOSIgcj0iMi4xOSIvPiYjeGE7CTwvZz4mI3hhOzwvc3ZnPg==;" parent="1" vertex="1">
          <mxGeometry x="380" y="90" width="38" height="42" as="geometry" />
        </mxCell>
        <mxCell id="xfwqslkf1F_73qSH5EB0-5" style="edgeStyle=orthogonalEdgeStyle;rounded=0;orthogonalLoop=1;jettySize=auto;html=1;entryX=0.5;entryY=0;entryDx=0;entryDy=0;" parent="1" source="GdxBve6bO89XHhxKQTAj-10" target="GdxBve6bO89XHhxKQTAj-5" edge="1">
          <mxGeometry relative="1" as="geometry" />
        </mxCell>
        <mxCell id="GdxBve6bO89XHhxKQTAj-10" value="" style="image;sketch=0;aspect=fixed;html=1;points=[];align=center;fontSize=12;image=img/lib/mscae/Docker.svg;" parent="1" vertex="1">
          <mxGeometry x="440" y="288.5" width="50" height="41" as="geometry" />
        </mxCell>
        <mxCell id="GdxBve6bO89XHhxKQTAj-15" style="edgeStyle=orthogonalEdgeStyle;rounded=0;orthogonalLoop=1;jettySize=auto;html=1;entryX=-0.043;entryY=0.606;entryDx=0;entryDy=0;entryPerimeter=0;" parent="1" source="GdxBve6bO89XHhxKQTAj-8" target="GdxBve6bO89XHhxKQTAj-7" edge="1">
          <mxGeometry relative="1" as="geometry" />
        </mxCell>
        <mxCell id="GdxBve6bO89XHhxKQTAj-17" value="" style="edgeStyle=none;orthogonalLoop=1;jettySize=auto;html=1;rounded=0;" parent="1" edge="1">
          <mxGeometry width="100" relative="1" as="geometry">
            <mxPoint x="381" y="480" as="sourcePoint" />
            <mxPoint x="370" y="510" as="targetPoint" />
            <Array as="points">
              <mxPoint x="400" y="480" />
              <mxPoint x="400" y="510" />
            </Array>
          </mxGeometry>
        </mxCell>
        <mxCell id="GdxBve6bO89XHhxKQTAj-18" value="" style="edgeStyle=none;orthogonalLoop=1;jettySize=auto;html=1;rounded=0;" parent="1" edge="1">
          <mxGeometry width="100" relative="1" as="geometry">
            <mxPoint x="750.66" y="150" as="sourcePoint" />
            <mxPoint x="570" y="220" as="targetPoint" />
            <Array as="points">
              <mxPoint x="750" y="220" />
            </Array>
          </mxGeometry>
        </mxCell>
        <mxCell id="GdxBve6bO89XHhxKQTAj-19" value="" style="edgeStyle=none;orthogonalLoop=1;jettySize=auto;html=1;rounded=0;" parent="1" edge="1">
          <mxGeometry width="100" relative="1" as="geometry">
            <mxPoint x="440" y="387" as="sourcePoint" />
            <mxPoint x="380" y="400" as="targetPoint" />
            <Array as="points">
              <mxPoint x="410" y="400" />
            </Array>
          </mxGeometry>
        </mxCell>
        <mxCell id="GdxBve6bO89XHhxKQTAj-20" value="" style="edgeStyle=none;orthogonalLoop=1;jettySize=auto;html=1;rounded=0;" parent="1" edge="1">
          <mxGeometry width="100" relative="1" as="geometry">
            <mxPoint x="340" y="380" as="sourcePoint" />
            <mxPoint x="340" y="350" as="targetPoint" />
            <Array as="points" />
          </mxGeometry>
        </mxCell>
        <mxCell id="xfwqslkf1F_73qSH5EB0-9" style="edgeStyle=orthogonalEdgeStyle;rounded=0;orthogonalLoop=1;jettySize=auto;html=1;entryX=0.5;entryY=0;entryDx=0;entryDy=0;" parent="1" source="xfwqslkf1F_73qSH5EB0-1" target="GdxBve6bO89XHhxKQTAj-4" edge="1">
          <mxGeometry relative="1" as="geometry" />
        </mxCell>
        <mxCell id="xfwqslkf1F_73qSH5EB0-1" value="Cloud Deploy" style="sketch=0;html=1;verticalAlign=top;labelPosition=center;verticalLabelPosition=bottom;align=center;spacingTop=-6;fontSize=11;fontStyle=1;fontColor=#999999;shape=image;aspect=fixed;imageAspect=0;image=data:image/svg+xml,PHN2ZyB4bWxucz0iaHR0cDovL3d3dy53My5vcmcvMjAwMC9zdmciIGlkPSJzdmc2ODU4MSIgdmVyc2lvbj0iMS4xIiB2aWV3Qm94PSIwIDAgMjM2LjQzMzk0IDI1My4zMDQ0MSIgaGVpZ2h0PSIyNTMuMzA0NDFtbSIgd2lkdGg9IjIzNi40MzM5NG1tIj4mI3hhOyAgJiN4YTsgIDxkZWZzIGlkPSJkZWZzNjg1NzgiLz4mI3hhOyAgPGcgdHJhbnNmb3JtPSJ0cmFuc2xhdGUoMTcuNjIzNTQxLC0xNy45ODI1NTIpIiBpZD0ibGF5ZXIxIj4mI3hhOyAgICA8cGF0aCBpZD0icGF0aDY4NzE1IiBkPSJtIC0xNy42MjM1NDEsMTI5LjE0Mjk5IDg0LjUwNjMyMiw0Ni44MDM1MSB2IDk1LjM0MDQ3IGwgLTQwLjE1ODU2LC0yMC41MTI2NSB2IC01Mi41ODE3MSBsIC00NC4zNDc3NjIsLTIyLjI0NjEyIHoiIHN0eWxlPSJvcGFjaXR5OjE7ZmlsbDojYjVjYmY5O2ZpbGwtb3BhY2l0eToxO3N0cm9rZTpub25lO3N0cm9rZS13aWR0aDowLjI2NDU4M3B4O3N0cm9rZS1saW5lY2FwOmJ1dHQ7c3Ryb2tlLWxpbmVqb2luOm1pdGVyO3N0cm9rZS1vcGFjaXR5OjEiLz4mI3hhOyAgICA8cGF0aCBpZD0icGF0aDY4NzE3IiBkPSJNIDM0LjAyMTMzOSw3NC4yOTk1NjkgMTM4LjM4ODEzLDEzNC44MDE1MyBWIDI1Ni4xNDM5NCBMIDkwLjUyODEyNiwyMzAuMDcxOSBWIDE2My4wNDQ2NiBMIDM0LjAyMTMzOSwxMzAuNTg3NTUgWiIgc3R5bGU9Im9wYWNpdHk6MTtmaWxsOiM3NjllZjU7ZmlsbC1vcGFjaXR5OjE7c3Ryb2tlOm5vbmU7c3Ryb2tlLXdpZHRoOjAuMjY0NTgzcHg7c3Ryb2tlLWxpbmVjYXA6YnV0dDtzdHJva2UtbGluZWpvaW46bWl0ZXI7c3Ryb2tlLW9wYWNpdHk6MSIvPiYjeGE7ICAgIDxwYXRoIGlkPSJwYXRoNjg3MTkiIGQ9Ik0gOTIuODg4OTc4LDgxLjQwMjY2IFYgMTcuOTgyNTUyIEwgMjE4LjgxMDQsOTIuNTkxNTY0IFYgMjM1LjI4NDMyIGwgLTU3Ljk5MjQxLC0zNC43ODA0MyB2IC03Ny40OTgxMiB6IiBzdHlsZT0ib3BhY2l0eToxO2ZpbGw6IzU5ODZmMjtmaWxsLW9wYWNpdHk6MTtzdHJva2U6bm9uZTtzdHJva2Utd2lkdGg6MC4yNjQ1ODNweDtzdHJva2UtbGluZWNhcDpidXR0O3N0cm9rZS1saW5lam9pbjptaXRlcjtzdHJva2Utb3BhY2l0eToxIi8+JiN4YTsgIDwvZz4mI3hhOzwvc3ZnPg==;" parent="1" vertex="1">
          <mxGeometry x="332" y="287.5" width="39" height="42" as="geometry" />
        </mxCell>
        <mxCell id="xfwqslkf1F_73qSH5EB0-4" value="" style="edgeStyle=none;orthogonalLoop=1;jettySize=auto;html=1;rounded=0;" parent="1" edge="1">
          <mxGeometry width="100" relative="1" as="geometry">
            <mxPoint x="400" y="280" as="sourcePoint" />
            <mxPoint x="440" y="300" as="targetPoint" />
            <Array as="points" />
          </mxGeometry>
        </mxCell>
        <mxCell id="xfwqslkf1F_73qSH5EB0-6" value="" style="edgeStyle=none;orthogonalLoop=1;jettySize=auto;html=1;rounded=0;entryX=1;entryY=0.25;entryDx=0;entryDy=0;" parent="1" target="xfwqslkf1F_73qSH5EB0-1" edge="1">
          <mxGeometry width="100" relative="1" as="geometry">
            <mxPoint x="400" y="280" as="sourcePoint" />
            <mxPoint x="450" y="310" as="targetPoint" />
            <Array as="points" />
          </mxGeometry>
        </mxCell>
        <mxCell id="xfwqslkf1F_73qSH5EB0-11" value="NO Error" style="text;html=1;align=center;verticalAlign=middle;resizable=0;points=[];autosize=1;strokeColor=none;fillColor=none;" parent="1" vertex="1">
          <mxGeometry x="270" y="350" width="70" height="30" as="geometry" />
        </mxCell>
        <mxCell id="xfwqslkf1F_73qSH5EB0-12" value="" style="edgeStyle=none;orthogonalLoop=1;jettySize=auto;html=1;rounded=0;" parent="1" edge="1">
          <mxGeometry width="100" relative="1" as="geometry">
            <mxPoint x="310" y="320" as="sourcePoint" />
            <mxPoint x="320" y="480" as="targetPoint" />
            <Array as="points">
              <mxPoint x="260" y="320" />
              <mxPoint x="260" y="480" />
            </Array>
          </mxGeometry>
        </mxCell>
        <mxCell id="xfwqslkf1F_73qSH5EB0-13" value="Prod" style="sketch=0;html=1;verticalAlign=top;labelPosition=center;verticalLabelPosition=bottom;align=center;spacingTop=-6;fontSize=11;fontStyle=1;fontColor=#999999;shape=image;aspect=fixed;imageAspect=0;image=data:image/svg+xml,PHN2ZyB4bWxucz0iaHR0cDovL3d3dy53My5vcmcvMjAwMC9zdmciIHhtbG5zOnY9Imh0dHBzOi8vdmVjdGEuaW8vbmFubyIgd2lkdGg9IjM2NS40NjQ5OTY3NzA0MjQ5MyIgaGVpZ2h0PSIzNzkuMjIyOTk0NDYzNTc3OTUiIHZpZXdCb3g9IjAgMCA5Ni42OTU5OTkxNDU1MDc4MSAxMDAuMzM1OTk4NTM1MTU2MjUiPiYjeGE7PHN0eWxlIHR5cGU9InRleHQvY3NzIj4mI3hhOwkuc3Qwe2ZpbGw6IzQyODVmNDt9JiN4YTsJLnN0MXtmaWxsOiNhZWNiZmE7fSYjeGE7PC9zdHlsZT4mI3hhOwk8cGF0aCBjbGFzcz0ic3QwIiBkPSJNMjkuNzk0IDEwMC4zMzZMNDYuOTIgNTAuMTY4aDQ5Ljc3NnpNMCA5OS42NzFsMTIuOTc2LTQ5LjUwMkgyOS4yMkwxNi44OTcgOTIuMDU0eiIvPiYjeGE7CTxwYXRoIGNsYXNzPSJzdDEiIGQ9Ik0yOS43OTQgMEw0Ni45MiA1MC4xNjhoNDkuNzc2ek0wIC42NjZsMTIuOTc2IDQ5LjUwMkgyOS4yMkwxNi44OTcgOC4yODN6Ii8+JiN4YTs8L3N2Zz4=;" parent="1" vertex="1">
          <mxGeometry x="329" y="460" width="42" height="42" as="geometry" />
        </mxCell>
        <mxCell id="xfwqslkf1F_73qSH5EB0-14" value="Error rollback" style="text;html=1;align=center;verticalAlign=middle;resizable=0;points=[];autosize=1;strokeColor=none;fillColor=none;" parent="1" vertex="1">
          <mxGeometry x="396" y="480" width="90" height="30" as="geometry" />
        </mxCell>
        <mxCell id="xfwqslkf1F_73qSH5EB0-19" style="edgeStyle=orthogonalEdgeStyle;rounded=0;orthogonalLoop=1;jettySize=auto;html=1;" parent="1" source="xfwqslkf1F_73qSH5EB0-17" edge="1">
          <mxGeometry relative="1" as="geometry">
            <mxPoint x="420" y="111" as="targetPoint" />
          </mxGeometry>
        </mxCell>
        <mxCell id="xfwqslkf1F_73qSH5EB0-17" value="Workflows" style="sketch=0;html=1;verticalAlign=top;labelPosition=center;verticalLabelPosition=bottom;align=center;spacingTop=-6;fontSize=11;fontStyle=1;fontColor=#999999;shape=image;aspect=fixed;imageAspect=0;image=data:image/svg+xml,PHN2ZyB4bWxucz0iaHR0cDovL3d3dy53My5vcmcvMjAwMC9zdmciIHhtbG5zOnhsaW5rPSJodHRwOi8vd3d3LnczLm9yZy8xOTk5L3hsaW5rIiB4bWxuczp2PSJodHRwczovL3ZlY3RhLmlvL25hbm8iIHdpZHRoPSIxOS41MSIgaGVpZ2h0PSIxOS41IiB2aWV3Qm94PSIwIDAgMTkuNTEgMTkuNSI+JiN4YTsJPHBhdGggZD0iTTE3LjI2IDE3LjgxaC0uN3YtMS41aC43YS43Ni43NiAwIDAgMCAuNzUtLjc1di00LjMxYS43Ni43NiAwIDAgMC0uNzUtLjc1aC0zLjYxVjloMy42MWEyLjI1IDIuMjUgMCAwIDEgMi4yNSAyLjI1djQuMzFhMi4yNSAyLjI1IDAgMCAxLTIuMjUgMi4yNXptLTcuOTUgMGgtNC45di0xLjVoNC45eiIgZmlsbD0iIzQyODVmNCIvPiYjeGE7CTxwYXRoIGZpbGw9IiM2NjlkZjYiIGZpbGwtcnVsZT0iZXZlbm9kZCIgZD0iTTUuODggMTAuNUgyLjI2QTIuMjUgMi4yNSAwIDAgMSAuMDEgOC4yNVYzLjk0YTIuMjUgMi4yNSAwIDAgMSAyLjI1LTIuMjVoMXYxLjVoLTFhLjc1Ljc1IDAgMCAwLS43NS43NXY0LjMxYS43Ni43NiAwIDAgMCAuNzUuNzVoMy42MnoiLz4mI3hhOwk8cGF0aCBmaWxsPSIjNDI4NWY0IiBkPSJNMTUuMDYgMy4xOUg5LjU4di0xLjVoNS40OHoiLz4mI3hhOwk8cGF0aCBmaWxsPSIjYWVjYmZhIiBkPSJNNi4zOSAxLjY5Vi4xOWgtM2ExLjEzIDEuMTMgMCAwIDAtMS4xMyAxLjEydjIuMjVhMS4xMyAxLjEzIDAgMCAwIDEuMTMgMS4xM2gzdi0xLjVIMy43NnYtMS41eiIvPiYjeGE7CTxwYXRoIGZpbGw9IiM2NjlkZjYiIGZpbGwtcnVsZT0iZXZlbm9kZCIgZD0iTTEwLjUxIDEuMzF2Mi4yNWExLjEzIDEuMTMgMCAwIDEtMS4xMiAxLjEzaC0zdi0xLjVoMi42MnYtMS41SDYuMzlWLjE5aDNhMS4xMiAxLjEyIDAgMCAxIDEuMTIgMS4xMnoiLz4mI3hhOwk8cGF0aCBmaWxsPSIjYWVjYmZhIiBkPSJNMTcuMDcgNC44OGEyLjQ0IDIuNDQgMCAxIDEgMi40NC0yLjQ0IDIuNDUgMi40NSAwIDAgMS0yLjQ0IDIuNDR6bTAtMy4zOGEuOTQuOTQgMCAxIDAgLjk0Ljk0Ljk0Ljk0IDAgMCAwLS45NC0uOTR6Ii8+JiN4YTsJPHVzZSB4bGluazpocmVmPSIjQiIgZmlsbD0iIzlhYTBhNiIvPiYjeGE7CTxnIGZpbGw9IiNhZWNiZmEiPiYjeGE7CQk8dXNlIHhsaW5rOmhyZWY9IiNCIi8+JiN4YTsJCTxwYXRoIGQ9Ik0xMy4xMiAxNi4zMnYtMS41aC0zQTEuMTMgMS4xMyAwIDAgMCA5IDE1Ljk1djIuMjVhMS4xMiAxLjEyIDAgMCAwIDEuMTIgMS4xMmgzdi0xLjVIMTAuNXYtMS41eiIvPiYjeGE7CTwvZz4mI3hhOwk8cGF0aCBmaWxsPSIjNjY5ZGY2IiBmaWxsLXJ1bGU9ImV2ZW5vZGQiIGQ9Ik0xNy4yNSAxNS45NXYyLjI1YTEuMTMgMS4xMyAwIDAgMS0xLjEzIDEuMTJoLTN2LTEuNWgyLjY0di0xLjVoLTIuNjR2LTEuNWgzYTEuMTQgMS4xNCAwIDAgMSAxLjEzIDEuMTN6Ii8+JiN4YTsJPHBhdGggZmlsbD0iI2FlY2JmYSIgZD0iTTkuNzYgOVY3LjVoLTNhMS4xMyAxLjEzIDAgMCAwLTEuMTMgMS4xMnYyLjI1QTEuMTMgMS4xMyAwIDAgMCA2Ljc2IDEyaDN2LTEuNUg3LjEzVjl6Ii8+JiN4YTsJPHBhdGggZmlsbD0iIzY2OWRmNiIgZmlsbC1ydWxlPSJldmVub2RkIiBkPSJNMTMuODggOC42MnYyLjI1QTEuMTMgMS4xMyAwIDAgMSAxMi43NiAxMmgtM3YtMS41aDIuNjJWOUg5Ljc2VjcuNWgzYTEuMTIgMS4xMiAwIDAgMSAxLjEyIDEuMTJ6Ii8+JiN4YTsJPGRlZnM+JiN4YTsJCTxwYXRoIGlkPSJCIiBkPSJNMi40NSAxOS41YTIuNDQgMi40NCAwIDEgMSAyLjQzLTIuNDQgMi40NCAyLjQ0IDAgMCAxLTIuNDMgMi40NHptMC0zLjM4YS45NC45NCAwIDEgMCAuOTMuOTQuOTQuOTQgMCAwIDAtLjkzLS45NHoiLz4mI3hhOwk8L2RlZnM+JiN4YTs8L3N2Zz4=;" parent="1" vertex="1">
          <mxGeometry x="570" y="90" width="42" height="42" as="geometry" />
        </mxCell>
        <mxCell id="xfwqslkf1F_73qSH5EB0-20" style="edgeStyle=orthogonalEdgeStyle;rounded=0;orthogonalLoop=1;jettySize=auto;html=1;" parent="1" source="xfwqslkf1F_73qSH5EB0-18" edge="1">
          <mxGeometry relative="1" as="geometry">
            <mxPoint x="620" y="111" as="targetPoint" />
          </mxGeometry>
        </mxCell>
        <mxCell id="xfwqslkf1F_73qSH5EB0-18" value="Eventarc" style="sketch=0;html=1;verticalAlign=top;labelPosition=center;verticalLabelPosition=bottom;align=center;spacingTop=-6;fontSize=11;fontStyle=1;fontColor=#999999;shape=image;aspect=fixed;imageAspect=0;image=data:image/svg+xml,PHN2ZyB4bWxucz0iaHR0cDovL3d3dy53My5vcmcvMjAwMC9zdmciIGlkPSJzdmc4MzgiIHZlcnNpb249IjEuMSIgdmlld0JveD0iMCAwIDE2NC4zNDc1OCAxNjQuMzQ3NiIgaGVpZ2h0PSIxNjQuMzQ3Nm1tIiB3aWR0aD0iMTY0LjM0NzU4bW0iPiYjeGE7ICA8cGF0aCBkPSJtIDEyMy43NzczOCwzMy41NDQ5NDIgLTg5LjgwODYwMSw4OS4zMjYxNjggOC4xMDkzNzUsOC4xNTQzIDg5LjgwODU5NiwtODkuMzI2MTY3IHogTSAxNC41MDgxOTcsMzUuNTkxNzMzIEMgNS4zNjEyNTIsNDguODM4NjEzIDAsNjQuODkxMTUzIDAsODIuMTczNzkzIGMgMWUtNiw5LjI1NTM0IDEuNTYwNDAxLDE4LjE0NzQzNyA0LjM5MzUzLDI2LjQ1NTIyNyAzLjA2OTg2MywtMi40MzY5NiA2LjUxMjg4MywtNC4zNjI1NSAxMC4xOTYyNzcsLTUuNzAyNDkgLTIuMDA0OTk2LC02LjU2MDIwNyAtMy4wODk3MzIsLTEzLjUyNjU2NyAtMy4wODk3MzIsLTIwLjc1MjczNyAwLC0xNC45NzI0NyA0LjYyOTY1LC0yOC44NDEyNyAxMi41Mzg3NywtNDAuMjU2MjEgeiBNIDQxLjUwNzc0NSwyNC4zMjQ5NjYgYyAxMS40OTIxMTEsLTguMDgzNDczIDI1LjUxMzkxOSwtMTIuODI0ODk0IDQwLjY2NjA1MSwtMTIuODI0ODk0IDcuMjIxOTksMCAxNC4xODYwMSwxLjA3OTcyMiAyMC43NDI5MjQsMy4wODI0OTkgMS4zOTExMSwtMy42ODE2MDggMy4zNjk2LC03LjExMzQ3NCA1Ljg1ODU1LC0xMC4xNjIxNyBDIDEwMC40MjgzMywxLjU1NzMzMiA5MS40ODAwOTYsMCA4Mi4xNzM3OTYsMCA2NC42NzY0MzcsMCA0OC40Mzk5NCw1LjQ5NTI5MiAzNS4wOTkzMiwxNC44NTA4NjEgWiBNIDEyMi43OTAzNiwxNDAuMDU3NCBjIC0xMS40ODI4Niw4LjA2MjMgLTI1LjQ4NjE3NCwxMi43OTAxMiAtNDAuNjE2NTY0LDEyLjc5MDExIC03LjI4NTE4OSwwIC0xNC4zMDc5NSwtMS4wOTg1OCAtMjAuOTE1MDAzLC0zLjEzNTIxIC0xLjM0OTc5LDMuNjc4NzYgLTMuMjg0MjYyLDcuMTE1NjUgLTUuNzI4ODUxLDEwLjE3ODE5IDguMzYxNTE2LDIuODc0MjYgMTcuMzE4NTU5LDQuNDU3MDkgMjYuNjQzODU0LDQuNDU3MSAxNy40OTQ3OSwwIDMzLjcyOTA5NCwtNS40OTM2OCA0Ny4wNjg2MDQsLTE0Ljg0Njc0IHogbSAyNy4xMzQyMiwtMTEuNDI1MTUgYyA5LjA5NTAzLC0xMy4yMjMwNyAxNC40MjMwMSwtMjkuMjI5NTI3IDE0LjQyMzAxLC00Ni40NTg0NTcgMCwtOS4yNTU0MSAtMS41MzkxNywtMTguMTU3MiAtNC4zNzIzNCwtMjYuNDY1MDUgLTMuMDUxMzIsMi40ODkxOCAtNi40ODYwMiw0LjQ2NzE3IC0xMC4xNzA0NCw1Ljg1NzAxIDEuOTc2NTMsNi41MTc2NSAzLjA0MjcxLDEzLjQzNTM4IDMuMDQyNzEsMjAuNjA4MDQgMCwxNS4wODgxNCAtNC43MDE0NSwyOS4wNTU0NzcgLTEyLjcyMjY0LDQwLjUyMDI5NyB6IiBzdHlsZT0iY29sb3I6IzAwMDAwMDtvcGFjaXR5OjE7ZmlsbDojNDI4NWY0O2ZpbGwtb3BhY2l0eToxOy1pbmtzY2FwZS1zdHJva2U6bm9uZSIvPiYjeGE7ICA8cGF0aCBkPSJNIDEwNi4wMDc4LDgyLjY0Njc2MyBBIDIzLjc1ODk3NiwyMy43NTg5NzYgMCAwIDEgODIuMjQ4ODE2LDEwNi40MDU3NCAyMy43NTg5NzYsMjMuNzU4OTc2IDAgMCAxIDU4LjQ4OTg0LDgyLjY0Njc2MyAyMy43NTg5NzYsMjMuNzU4OTc2IDAgMCAxIDgyLjI0ODgxNiw1OC44ODc3ODMgMjMuNzU4OTc2LDIzLjc1ODk3NiAwIDAgMSAxMDYuMDA3OCw4Mi42NDY3NjMgWiIgc3R5bGU9ImNvbG9yOiMwMDAwMDA7b3BhY2l0eToxO2ZpbGw6IzY2OWRmNjtmaWxsLW9wYWNpdHk6MTtzdHJva2Utd2lkdGg6MTEuNTtzdHJva2UtbGluZWNhcDpyb3VuZDstaW5rc2NhcGUtc3Ryb2tlOm5vbmUiLz4mI3hhOyAgPHBhdGggZD0ibSAxMzYuODc4OTQsMTE3LjEzNDc4IGMgLTExLjA1Nzc1LDAgLTIwLjE0NDU0LDkuMDg4NzQgLTIwLjE0NDUzLDIwLjE0NjQ5IDAsMTEuMDU3NzQgOS4wODY3OSwyMC4xNDQ1MyAyMC4xNDQ1MywyMC4xNDQ1MyAxMS4wNTc3MywwIDIwLjE0NjQ4LC05LjA4NjggMjAuMTQ2NDgsLTIwLjE0NDUzIDFlLTUsLTExLjA1Nzc0IC05LjA4ODc0LC0yMC4xNDY0OCAtMjAuMTQ2NDgsLTIwLjE0NjQ5IHogbSAwLDExLjUgYyA0Ljg0MjY4LDAgOC42NDY0OSwzLjgwMzggOC42NDY0OCw4LjY0NjQ5IDAsNC44NDI2OCAtMy44MDM4LDguNjQ0NTMgLTguNjQ2NDgsOC42NDQ1MyAtNC44NDI2OCwwIC04LjY0NDUzLC0zLjgwMTg1IC04LjY0NDUzLC04LjY0NDUzIDAsLTQuODQyNjkgMy44MDE4NCwtOC42NDY0OSA4LjY0NDUzLC04LjY0NjQ5IHogTSAyNy4wOTU3MzIsMTE2Ljk3NDYzIGMgLTExLjA1NzczNiwwIC0yMC4xNDQ1MjgsOS4wODY3OSAtMjAuMTQ0NTMxLDIwLjE0NDUzIC01ZS02LDExLjA1Nzc0IDkuMDg2NzksMjAuMTQ2NDggMjAuMTQ0NTMxLDIwLjE0NjQ4IDExLjA1Nzc0MiwwIDIwLjE0NjQ4OSwtOS4wODg3NCAyMC4xNDY0ODUsLTIwLjE0NjQ4IC0zZS02LC0xMS4wNTc3NCAtOS4wODg3NDgsLTIwLjE0NDUzIC0yMC4xNDY0ODUsLTIwLjE0NDUzIHogbSAwLDExLjUgYyA0Ljg0MjY4MiwwIDguNjQ2NDgzLDMuODAxODUgOC42NDY0ODUsOC42NDQ1MyAyZS02LDQuODQyNjggLTMuODAzOCw4LjY0NjQ4IC04LjY0NjQ4NSw4LjY0NjQ4IC00Ljg0MjY4NCwwIC04LjY0NDUzMywtMy44MDM4IC04LjY0NDUzMSwtOC42NDY0OCAxMGUtNywtNC44NDI2OCAzLjgwMTg0OSwtOC42NDQ1MyA4LjY0NDUzMSwtOC42NDQ1MyB6IE0gMTM2Ljk0MTQ0LDcuMzQzNzcgYyAtMTEuMDU3NzQsM2UtNiAtMjAuMTQ2NDksOS4wODY3OTUgLTIwLjE0NjQ5LDIwLjE0NDUzMSAwLDExLjA1Nzc0MiA5LjA4ODc1LDIwLjE0NjQ4MiAyMC4xNDY0OSwyMC4xNDY0ODIgMTEuMDU3NzQsMWUtNSAyMC4xNDQ1MywtOS4wODg3NCAyMC4xNDQ1MywtMjAuMTQ2NDgyIDAsLTExLjA1Nzc0MSAtOS4wODY3OSwtMjAuMTQ0NTM2IC0yMC4xNDQ1MywtMjAuMTQ0NTMxIHogbSAwLDExLjUgYyA0Ljg0MjY4LC0yZS02IDguNjQ0NTMsMy44MDE4NDcgOC42NDQ1Myw4LjY0NDUzMSAwLDQuODQyNjg1IC0zLjgwMTg1LDguNjQ2NDgyIC04LjY0NDUzLDguNjQ2NDgyIC00Ljg0MjY4LDAgLTguNjQ2NDksLTMuODAzNzk5IC04LjY0NjQ5LC04LjY0NjQ4MiAwLC00Ljg0MjY4MiAzLjgwMzgxLC04LjY0NDUzIDguNjQ2NDksLTguNjQ0NTMxIHogTSAyNy4wODk4NzMsNy40Mzc1MiBjIC0xMS4wNTc3MzksLTFlLTYgLTIwLjE0NDUzMSw5LjA4Njc5MiAtMjAuMTQ0NTMxLDIwLjE0NDUzMSAyZS02LDExLjA1Nzc0MiA5LjA4Njc5NCwyMC4xNDQ1MzIgMjAuMTQ0NTMxLDIwLjE0NDUzMiAxMS4wNTc3MzYsMCAyMC4xNDY0ODIsLTkuMDg2OCAyMC4xNDY0ODQsLTIwLjE0NDUzMiAwLC0xMS4wNTc3MzggLTkuMDg4NzQ2LC0yMC4xNDQ1MzEgLTIwLjE0NjQ4NCwtMjAuMTQ0NTMxIHogbSAwLDExLjUgYyA0Ljg0MjY4MywwIDguNjQ2NDg0LDMuODAxODQ4IDguNjQ2NDg0LDguNjQ0NTMxIC0xMGUtNyw0Ljg0MjY4MiAtMy44MDM4MDIsOC42NDQ1MzIgLTguNjQ2NDg0LDguNjQ0NTMyIC00Ljg0MjY4MywwIC04LjY0NDUzLC0zLjgwMTg0OSAtOC42NDQ1MzEsLTguNjQ0NTMyIDAsLTQuODQyNjgzIDMuODAxODQ4LC04LjY0NDUzMSA4LjY0NDUzMSwtOC42NDQ1MzEgeiIgc3R5bGU9ImNvbG9yOiMwMDAwMDA7b3BhY2l0eToxO2ZpbGw6I2FlY2JmYTtmaWxsLW9wYWNpdHk6MTtzdHJva2UtbGluZWNhcDpyb3VuZDstaW5rc2NhcGUtc3Ryb2tlOm5vbmUiLz4mI3hhOzwvc3ZnPg==;" parent="1" vertex="1">
          <mxGeometry x="730" y="90" width="42" height="42" as="geometry" />
        </mxCell>
        <mxCell id="xfwqslkf1F_73qSH5EB0-24" value="" style="edgeStyle=none;orthogonalLoop=1;jettySize=auto;html=1;rounded=0;entryX=1;entryY=0.25;entryDx=0;entryDy=0;" parent="1" target="xfwqslkf1F_73qSH5EB0-13" edge="1">
          <mxGeometry width="100" relative="1" as="geometry">
            <mxPoint x="440" y="390" as="sourcePoint" />
            <mxPoint x="390" y="410" as="targetPoint" />
            <Array as="points">
              <mxPoint x="390" y="470" />
            </Array>
          </mxGeometry>
        </mxCell>
        <mxCell id="xfwqslkf1F_73qSH5EB0-25" value="Item changed" style="text;html=1;align=center;verticalAlign=middle;resizable=0;points=[];autosize=1;strokeColor=none;fillColor=none;" parent="1" vertex="1">
          <mxGeometry x="570" y="220" width="100" height="30" as="geometry" />
        </mxCell>
        <mxCell id="0HkNrGb_BGfiUskiQbqX-1" value="Prod" style="sketch=0;html=1;verticalAlign=top;labelPosition=center;verticalLabelPosition=bottom;align=center;spacingTop=-6;fontSize=11;fontStyle=1;fontColor=#999999;shape=image;aspect=fixed;imageAspect=0;image=data:image/svg+xml,PHN2ZyB4bWxucz0iaHR0cDovL3d3dy53My5vcmcvMjAwMC9zdmciIHhtbG5zOnY9Imh0dHBzOi8vdmVjdGEuaW8vbmFubyIgd2lkdGg9IjM2NS40NjQ5OTY3NzA0MjQ5MyIgaGVpZ2h0PSIzNzkuMjIyOTk0NDYzNTc3OTUiIHZpZXdCb3g9IjAgMCA5Ni42OTU5OTkxNDU1MDc4MSAxMDAuMzM1OTk4NTM1MTU2MjUiPiYjeGE7PHN0eWxlIHR5cGU9InRleHQvY3NzIj4mI3hhOwkuc3Qwe2ZpbGw6IzQyODVmNDt9JiN4YTsJLnN0MXtmaWxsOiNhZWNiZmE7fSYjeGE7PC9zdHlsZT4mI3hhOwk8cGF0aCBjbGFzcz0ic3QwIiBkPSJNMjkuNzk0IDEwMC4zMzZMNDYuOTIgNTAuMTY4aDQ5Ljc3NnpNMCA5OS42NzFsMTIuOTc2LTQ5LjUwMkgyOS4yMkwxNi44OTcgOTIuMDU0eiIvPiYjeGE7CTxwYXRoIGNsYXNzPSJzdDEiIGQ9Ik0yOS43OTQgMEw0Ni45MiA1MC4xNjhoNDkuNzc2ek0wIC42NjZsMTIuOTc2IDQ5LjUwMkgyOS4yMkwxNi44OTcgOC4yODN6Ii8+JiN4YTs8L3N2Zz4=;" vertex="1" parent="1">
          <mxGeometry x="560" y="696" width="42" height="42" as="geometry" />
        </mxCell>
        <mxCell id="0HkNrGb_BGfiUskiQbqX-11" style="edgeStyle=orthogonalEdgeStyle;rounded=0;orthogonalLoop=1;jettySize=auto;html=1;exitX=1;exitY=0.5;exitDx=0;exitDy=0;" edge="1" parent="1" source="0HkNrGb_BGfiUskiQbqX-2">
          <mxGeometry relative="1" as="geometry">
            <mxPoint x="450" y="721" as="targetPoint" />
          </mxGeometry>
        </mxCell>
        <mxCell id="0HkNrGb_BGfiUskiQbqX-2" value="Workflows" style="sketch=0;html=1;verticalAlign=top;labelPosition=center;verticalLabelPosition=bottom;align=center;spacingTop=-6;fontSize=11;fontStyle=1;fontColor=#999999;shape=image;aspect=fixed;imageAspect=0;image=data:image/svg+xml,PHN2ZyB4bWxucz0iaHR0cDovL3d3dy53My5vcmcvMjAwMC9zdmciIHhtbG5zOnhsaW5rPSJodHRwOi8vd3d3LnczLm9yZy8xOTk5L3hsaW5rIiB4bWxuczp2PSJodHRwczovL3ZlY3RhLmlvL25hbm8iIHdpZHRoPSIxOS41MSIgaGVpZ2h0PSIxOS41IiB2aWV3Qm94PSIwIDAgMTkuNTEgMTkuNSI+JiN4YTsJPHBhdGggZD0iTTE3LjI2IDE3LjgxaC0uN3YtMS41aC43YS43Ni43NiAwIDAgMCAuNzUtLjc1di00LjMxYS43Ni43NiAwIDAgMC0uNzUtLjc1aC0zLjYxVjloMy42MWEyLjI1IDIuMjUgMCAwIDEgMi4yNSAyLjI1djQuMzFhMi4yNSAyLjI1IDAgMCAxLTIuMjUgMi4yNXptLTcuOTUgMGgtNC45di0xLjVoNC45eiIgZmlsbD0iIzQyODVmNCIvPiYjeGE7CTxwYXRoIGZpbGw9IiM2NjlkZjYiIGZpbGwtcnVsZT0iZXZlbm9kZCIgZD0iTTUuODggMTAuNUgyLjI2QTIuMjUgMi4yNSAwIDAgMSAuMDEgOC4yNVYzLjk0YTIuMjUgMi4yNSAwIDAgMSAyLjI1LTIuMjVoMXYxLjVoLTFhLjc1Ljc1IDAgMCAwLS43NS43NXY0LjMxYS43Ni43NiAwIDAgMCAuNzUuNzVoMy42MnoiLz4mI3hhOwk8cGF0aCBmaWxsPSIjNDI4NWY0IiBkPSJNMTUuMDYgMy4xOUg5LjU4di0xLjVoNS40OHoiLz4mI3hhOwk8cGF0aCBmaWxsPSIjYWVjYmZhIiBkPSJNNi4zOSAxLjY5Vi4xOWgtM2ExLjEzIDEuMTMgMCAwIDAtMS4xMyAxLjEydjIuMjVhMS4xMyAxLjEzIDAgMCAwIDEuMTMgMS4xM2gzdi0xLjVIMy43NnYtMS41eiIvPiYjeGE7CTxwYXRoIGZpbGw9IiM2NjlkZjYiIGZpbGwtcnVsZT0iZXZlbm9kZCIgZD0iTTEwLjUxIDEuMzF2Mi4yNWExLjEzIDEuMTMgMCAwIDEtMS4xMiAxLjEzaC0zdi0xLjVoMi42MnYtMS41SDYuMzlWLjE5aDNhMS4xMiAxLjEyIDAgMCAxIDEuMTIgMS4xMnoiLz4mI3hhOwk8cGF0aCBmaWxsPSIjYWVjYmZhIiBkPSJNMTcuMDcgNC44OGEyLjQ0IDIuNDQgMCAxIDEgMi40NC0yLjQ0IDIuNDUgMi40NSAwIDAgMS0yLjQ0IDIuNDR6bTAtMy4zOGEuOTQuOTQgMCAxIDAgLjk0Ljk0Ljk0Ljk0IDAgMCAwLS45NC0uOTR6Ii8+JiN4YTsJPHVzZSB4bGluazpocmVmPSIjQiIgZmlsbD0iIzlhYTBhNiIvPiYjeGE7CTxnIGZpbGw9IiNhZWNiZmEiPiYjeGE7CQk8dXNlIHhsaW5rOmhyZWY9IiNCIi8+JiN4YTsJCTxwYXRoIGQ9Ik0xMy4xMiAxNi4zMnYtMS41aC0zQTEuMTMgMS4xMyAwIDAgMCA5IDE1Ljk1djIuMjVhMS4xMiAxLjEyIDAgMCAwIDEuMTIgMS4xMmgzdi0xLjVIMTAuNXYtMS41eiIvPiYjeGE7CTwvZz4mI3hhOwk8cGF0aCBmaWxsPSIjNjY5ZGY2IiBmaWxsLXJ1bGU9ImV2ZW5vZGQiIGQ9Ik0xNy4yNSAxNS45NXYyLjI1YTEuMTMgMS4xMyAwIDAgMS0xLjEzIDEuMTJoLTN2LTEuNWgyLjY0di0xLjVoLTIuNjR2LTEuNWgzYTEuMTQgMS4xNCAwIDAgMSAxLjEzIDEuMTN6Ii8+JiN4YTsJPHBhdGggZmlsbD0iI2FlY2JmYSIgZD0iTTkuNzYgOVY3LjVoLTNhMS4xMyAxLjEzIDAgMCAwLTEuMTMgMS4xMnYyLjI1QTEuMTMgMS4xMyAwIDAgMCA2Ljc2IDEyaDN2LTEuNUg3LjEzVjl6Ii8+JiN4YTsJPHBhdGggZmlsbD0iIzY2OWRmNiIgZmlsbC1ydWxlPSJldmVub2RkIiBkPSJNMTMuODggOC42MnYyLjI1QTEuMTMgMS4xMyAwIDAgMSAxMi43NiAxMmgtM3YtMS41aDIuNjJWOUg5Ljc2VjcuNWgzYTEuMTIgMS4xMiAwIDAgMSAxLjEyIDEuMTJ6Ii8+JiN4YTsJPGRlZnM+JiN4YTsJCTxwYXRoIGlkPSJCIiBkPSJNMi40NSAxOS41YTIuNDQgMi40NCAwIDEgMSAyLjQzLTIuNDQgMi40NCAyLjQ0IDAgMCAxLTIuNDMgMi40NHptMC0zLjM4YS45NC45NCAwIDEgMCAuOTMuOTQuOTQuOTQgMCAwIDAtLjkzLS45NHoiLz4mI3hhOwk8L2RlZnM+JiN4YTs8L3N2Zz4=;" vertex="1" parent="1">
          <mxGeometry x="360" y="700" width="42" height="42" as="geometry" />
        </mxCell>
        <mxCell id="0HkNrGb_BGfiUskiQbqX-6" style="edgeStyle=orthogonalEdgeStyle;rounded=0;orthogonalLoop=1;jettySize=auto;html=1;entryX=0;entryY=0.5;entryDx=0;entryDy=0;" edge="1" parent="1" source="0HkNrGb_BGfiUskiQbqX-3" target="0HkNrGb_BGfiUskiQbqX-2">
          <mxGeometry relative="1" as="geometry" />
        </mxCell>
        <mxCell id="0HkNrGb_BGfiUskiQbqX-3" value="Eventarc" style="sketch=0;html=1;verticalAlign=top;labelPosition=center;verticalLabelPosition=bottom;align=center;spacingTop=-6;fontSize=11;fontStyle=1;fontColor=#999999;shape=image;aspect=fixed;imageAspect=0;image=data:image/svg+xml,PHN2ZyB4bWxucz0iaHR0cDovL3d3dy53My5vcmcvMjAwMC9zdmciIGlkPSJzdmc4MzgiIHZlcnNpb249IjEuMSIgdmlld0JveD0iMCAwIDE2NC4zNDc1OCAxNjQuMzQ3NiIgaGVpZ2h0PSIxNjQuMzQ3Nm1tIiB3aWR0aD0iMTY0LjM0NzU4bW0iPiYjeGE7ICA8cGF0aCBkPSJtIDEyMy43NzczOCwzMy41NDQ5NDIgLTg5LjgwODYwMSw4OS4zMjYxNjggOC4xMDkzNzUsOC4xNTQzIDg5LjgwODU5NiwtODkuMzI2MTY3IHogTSAxNC41MDgxOTcsMzUuNTkxNzMzIEMgNS4zNjEyNTIsNDguODM4NjEzIDAsNjQuODkxMTUzIDAsODIuMTczNzkzIGMgMWUtNiw5LjI1NTM0IDEuNTYwNDAxLDE4LjE0NzQzNyA0LjM5MzUzLDI2LjQ1NTIyNyAzLjA2OTg2MywtMi40MzY5NiA2LjUxMjg4MywtNC4zNjI1NSAxMC4xOTYyNzcsLTUuNzAyNDkgLTIuMDA0OTk2LC02LjU2MDIwNyAtMy4wODk3MzIsLTEzLjUyNjU2NyAtMy4wODk3MzIsLTIwLjc1MjczNyAwLC0xNC45NzI0NyA0LjYyOTY1LC0yOC44NDEyNyAxMi41Mzg3NywtNDAuMjU2MjEgeiBNIDQxLjUwNzc0NSwyNC4zMjQ5NjYgYyAxMS40OTIxMTEsLTguMDgzNDczIDI1LjUxMzkxOSwtMTIuODI0ODk0IDQwLjY2NjA1MSwtMTIuODI0ODk0IDcuMjIxOTksMCAxNC4xODYwMSwxLjA3OTcyMiAyMC43NDI5MjQsMy4wODI0OTkgMS4zOTExMSwtMy42ODE2MDggMy4zNjk2LC03LjExMzQ3NCA1Ljg1ODU1LC0xMC4xNjIxNyBDIDEwMC40MjgzMywxLjU1NzMzMiA5MS40ODAwOTYsMCA4Mi4xNzM3OTYsMCA2NC42NzY0MzcsMCA0OC40Mzk5NCw1LjQ5NTI5MiAzNS4wOTkzMiwxNC44NTA4NjEgWiBNIDEyMi43OTAzNiwxNDAuMDU3NCBjIC0xMS40ODI4Niw4LjA2MjMgLTI1LjQ4NjE3NCwxMi43OTAxMiAtNDAuNjE2NTY0LDEyLjc5MDExIC03LjI4NTE4OSwwIC0xNC4zMDc5NSwtMS4wOTg1OCAtMjAuOTE1MDAzLC0zLjEzNTIxIC0xLjM0OTc5LDMuNjc4NzYgLTMuMjg0MjYyLDcuMTE1NjUgLTUuNzI4ODUxLDEwLjE3ODE5IDguMzYxNTE2LDIuODc0MjYgMTcuMzE4NTU5LDQuNDU3MDkgMjYuNjQzODU0LDQuNDU3MSAxNy40OTQ3OSwwIDMzLjcyOTA5NCwtNS40OTM2OCA0Ny4wNjg2MDQsLTE0Ljg0Njc0IHogbSAyNy4xMzQyMiwtMTEuNDI1MTUgYyA5LjA5NTAzLC0xMy4yMjMwNyAxNC40MjMwMSwtMjkuMjI5NTI3IDE0LjQyMzAxLC00Ni40NTg0NTcgMCwtOS4yNTU0MSAtMS41MzkxNywtMTguMTU3MiAtNC4zNzIzNCwtMjYuNDY1MDUgLTMuMDUxMzIsMi40ODkxOCAtNi40ODYwMiw0LjQ2NzE3IC0xMC4xNzA0NCw1Ljg1NzAxIDEuOTc2NTMsNi41MTc2NSAzLjA0MjcxLDEzLjQzNTM4IDMuMDQyNzEsMjAuNjA4MDQgMCwxNS4wODgxNCAtNC43MDE0NSwyOS4wNTU0NzcgLTEyLjcyMjY0LDQwLjUyMDI5NyB6IiBzdHlsZT0iY29sb3I6IzAwMDAwMDtvcGFjaXR5OjE7ZmlsbDojNDI4NWY0O2ZpbGwtb3BhY2l0eToxOy1pbmtzY2FwZS1zdHJva2U6bm9uZSIvPiYjeGE7ICA8cGF0aCBkPSJNIDEwNi4wMDc4LDgyLjY0Njc2MyBBIDIzLjc1ODk3NiwyMy43NTg5NzYgMCAwIDEgODIuMjQ4ODE2LDEwNi40MDU3NCAyMy43NTg5NzYsMjMuNzU4OTc2IDAgMCAxIDU4LjQ4OTg0LDgyLjY0Njc2MyAyMy43NTg5NzYsMjMuNzU4OTc2IDAgMCAxIDgyLjI0ODgxNiw1OC44ODc3ODMgMjMuNzU4OTc2LDIzLjc1ODk3NiAwIDAgMSAxMDYuMDA3OCw4Mi42NDY3NjMgWiIgc3R5bGU9ImNvbG9yOiMwMDAwMDA7b3BhY2l0eToxO2ZpbGw6IzY2OWRmNjtmaWxsLW9wYWNpdHk6MTtzdHJva2Utd2lkdGg6MTEuNTtzdHJva2UtbGluZWNhcDpyb3VuZDstaW5rc2NhcGUtc3Ryb2tlOm5vbmUiLz4mI3hhOyAgPHBhdGggZD0ibSAxMzYuODc4OTQsMTE3LjEzNDc4IGMgLTExLjA1Nzc1LDAgLTIwLjE0NDU0LDkuMDg4NzQgLTIwLjE0NDUzLDIwLjE0NjQ5IDAsMTEuMDU3NzQgOS4wODY3OSwyMC4xNDQ1MyAyMC4xNDQ1MywyMC4xNDQ1MyAxMS4wNTc3MywwIDIwLjE0NjQ4LC05LjA4NjggMjAuMTQ2NDgsLTIwLjE0NDUzIDFlLTUsLTExLjA1Nzc0IC05LjA4ODc0LC0yMC4xNDY0OCAtMjAuMTQ2NDgsLTIwLjE0NjQ5IHogbSAwLDExLjUgYyA0Ljg0MjY4LDAgOC42NDY0OSwzLjgwMzggOC42NDY0OCw4LjY0NjQ5IDAsNC44NDI2OCAtMy44MDM4LDguNjQ0NTMgLTguNjQ2NDgsOC42NDQ1MyAtNC44NDI2OCwwIC04LjY0NDUzLC0zLjgwMTg1IC04LjY0NDUzLC04LjY0NDUzIDAsLTQuODQyNjkgMy44MDE4NCwtOC42NDY0OSA4LjY0NDUzLC04LjY0NjQ5IHogTSAyNy4wOTU3MzIsMTE2Ljk3NDYzIGMgLTExLjA1NzczNiwwIC0yMC4xNDQ1MjgsOS4wODY3OSAtMjAuMTQ0NTMxLDIwLjE0NDUzIC01ZS02LDExLjA1Nzc0IDkuMDg2NzksMjAuMTQ2NDggMjAuMTQ0NTMxLDIwLjE0NjQ4IDExLjA1Nzc0MiwwIDIwLjE0NjQ4OSwtOS4wODg3NCAyMC4xNDY0ODUsLTIwLjE0NjQ4IC0zZS02LC0xMS4wNTc3NCAtOS4wODg3NDgsLTIwLjE0NDUzIC0yMC4xNDY0ODUsLTIwLjE0NDUzIHogbSAwLDExLjUgYyA0Ljg0MjY4MiwwIDguNjQ2NDgzLDMuODAxODUgOC42NDY0ODUsOC42NDQ1MyAyZS02LDQuODQyNjggLTMuODAzOCw4LjY0NjQ4IC04LjY0NjQ4NSw4LjY0NjQ4IC00Ljg0MjY4NCwwIC04LjY0NDUzMywtMy44MDM4IC04LjY0NDUzMSwtOC42NDY0OCAxMGUtNywtNC44NDI2OCAzLjgwMTg0OSwtOC42NDQ1MyA4LjY0NDUzMSwtOC42NDQ1MyB6IE0gMTM2Ljk0MTQ0LDcuMzQzNzcgYyAtMTEuMDU3NzQsM2UtNiAtMjAuMTQ2NDksOS4wODY3OTUgLTIwLjE0NjQ5LDIwLjE0NDUzMSAwLDExLjA1Nzc0MiA5LjA4ODc1LDIwLjE0NjQ4MiAyMC4xNDY0OSwyMC4xNDY0ODIgMTEuMDU3NzQsMWUtNSAyMC4xNDQ1MywtOS4wODg3NCAyMC4xNDQ1MywtMjAuMTQ2NDgyIDAsLTExLjA1Nzc0MSAtOS4wODY3OSwtMjAuMTQ0NTM2IC0yMC4xNDQ1MywtMjAuMTQ0NTMxIHogbSAwLDExLjUgYyA0Ljg0MjY4LC0yZS02IDguNjQ0NTMsMy44MDE4NDcgOC42NDQ1Myw4LjY0NDUzMSAwLDQuODQyNjg1IC0zLjgwMTg1LDguNjQ2NDgyIC04LjY0NDUzLDguNjQ2NDgyIC00Ljg0MjY4LDAgLTguNjQ2NDksLTMuODAzNzk5IC04LjY0NjQ5LC04LjY0NjQ4MiAwLC00Ljg0MjY4MiAzLjgwMzgxLC04LjY0NDUzIDguNjQ2NDksLTguNjQ0NTMxIHogTSAyNy4wODk4NzMsNy40Mzc1MiBjIC0xMS4wNTc3MzksLTFlLTYgLTIwLjE0NDUzMSw5LjA4Njc5MiAtMjAuMTQ0NTMxLDIwLjE0NDUzMSAyZS02LDExLjA1Nzc0MiA5LjA4Njc5NCwyMC4xNDQ1MzIgMjAuMTQ0NTMxLDIwLjE0NDUzMiAxMS4wNTc3MzYsMCAyMC4xNDY0ODIsLTkuMDg2OCAyMC4xNDY0ODQsLTIwLjE0NDUzMiAwLC0xMS4wNTc3MzggLTkuMDg4NzQ2LC0yMC4xNDQ1MzEgLTIwLjE0NjQ4NCwtMjAuMTQ0NTMxIHogbSAwLDExLjUgYyA0Ljg0MjY4MywwIDguNjQ2NDg0LDMuODAxODQ4IDguNjQ2NDg0LDguNjQ0NTMxIC0xMGUtNyw0Ljg0MjY4MiAtMy44MDM4MDIsOC42NDQ1MzIgLTguNjQ2NDg0LDguNjQ0NTMyIC00Ljg0MjY4MywwIC04LjY0NDUzLC0zLjgwMTg0OSAtOC42NDQ1MzEsLTguNjQ0NTMyIDAsLTQuODQyNjgzIDMuODAxODQ4LC04LjY0NDUzMSA4LjY0NDUzMSwtOC42NDQ1MzEgeiIgc3R5bGU9ImNvbG9yOiMwMDAwMDA7b3BhY2l0eToxO2ZpbGw6I2FlY2JmYTtmaWxsLW9wYWNpdHk6MTtzdHJva2UtbGluZWNhcDpyb3VuZDstaW5rc2NhcGUtc3Ryb2tlOm5vbmUiLz4mI3hhOzwvc3ZnPg==;" vertex="1" parent="1">
          <mxGeometry x="270" y="700" width="42" height="42" as="geometry" />
        </mxCell>
        <mxCell id="0HkNrGb_BGfiUskiQbqX-9" style="edgeStyle=orthogonalEdgeStyle;rounded=0;orthogonalLoop=1;jettySize=auto;html=1;" edge="1" parent="1" source="0HkNrGb_BGfiUskiQbqX-4">
          <mxGeometry relative="1" as="geometry">
            <mxPoint x="260" y="721" as="targetPoint" />
          </mxGeometry>
        </mxCell>
        <mxCell id="0HkNrGb_BGfiUskiQbqX-4" value="Cloud&#xa;Storage" style="sketch=0;html=1;verticalAlign=top;labelPosition=center;verticalLabelPosition=bottom;align=center;spacingTop=-6;fontSize=11;fontStyle=1;fontColor=#999999;shape=image;aspect=fixed;imageAspect=0;image=data:image/svg+xml,PHN2ZyB4bWxucz0iaHR0cDovL3d3dy53My5vcmcvMjAwMC9zdmciIHhtbG5zOnY9Imh0dHBzOi8vdmVjdGEuaW8vbmFubyIgd2lkdGg9IjIwIiBoZWlnaHQ9IjE2IiB2aWV3Qm94PSIwIDAgMjAgMTYiPiYjeGE7CTxzdHlsZSB0eXBlPSJ0ZXh0L2NzcyI+JiN4YTsJLnN0MHtmaWxsOiM0Mjg1ZjQ7fSYjeGE7CS5zdDF7ZmlsbDojNjY5ZGY2O30mI3hhOwkuc3Qye2ZpbGw6I2FlY2JmYTt9JiN4YTsJLnN0M3tmaWxsOiNmZmY7fSYjeGE7CTwvc3R5bGU+JiN4YTsJPHBhdGggY2xhc3M9InN0MiIgZD0iTTAgMGgyMHY3SDB6Ii8+JiN4YTsJPHBhdGggY2xhc3M9InN0MSIgZD0iTTE4IDBoMnY3aC0yeiIvPiYjeGE7CTxwYXRoIGNsYXNzPSJzdDAiIGQ9Ik0xOCA3bDItN2gtMnoiLz4mI3hhOwk8cGF0aCBjbGFzcz0ic3QxIiBkPSJNMCAwaDJ2N0gweiIvPiYjeGE7CTxnIGNsYXNzPSJzdDMiPiYjeGE7CQk8cGF0aCBkPSJNNCAzaDZ2MUg0eiIvPiYjeGE7CQk8cmVjdCB4PSIxMyIgeT0iMiIgd2lkdGg9IjMiIGhlaWdodD0iMyIgcng9IjEuNSIvPiYjeGE7CTwvZz4mI3hhOwk8cGF0aCBjbGFzcz0ic3QyIiBkPSJNMCA5aDIwdjdIMHoiLz4mI3hhOwk8cGF0aCBjbGFzcz0ic3QxIiBkPSJNMTggOWgydjdoLTJ6Ii8+JiN4YTsJPHBhdGggY2xhc3M9InN0MCIgZD0iTTE4IDE2bDItN2gtMnoiLz4mI3hhOwk8cGF0aCBjbGFzcz0ic3QxIiBkPSJNMCA5aDJ2N0gweiIvPiYjeGE7CTxnIGNsYXNzPSJzdDMiPiYjeGE7CQk8cGF0aCBkPSJNNCAxMmg2djFINHoiLz4mI3hhOwkJPHJlY3QgeD0iMTMiIHk9IjExIiB3aWR0aD0iMyIgaGVpZ2h0PSIzIiByeD0iMS41Ii8+JiN4YTsJPC9nPiYjeGE7PC9zdmc+;" vertex="1" parent="1">
          <mxGeometry x="170" y="704" width="42" height="34" as="geometry" />
        </mxCell>
        <mxCell id="0HkNrGb_BGfiUskiQbqX-12" style="edgeStyle=orthogonalEdgeStyle;rounded=0;orthogonalLoop=1;jettySize=auto;html=1;entryX=0;entryY=0.5;entryDx=0;entryDy=0;" edge="1" parent="1" source="0HkNrGb_BGfiUskiQbqX-10" target="0HkNrGb_BGfiUskiQbqX-1">
          <mxGeometry relative="1" as="geometry" />
        </mxCell>
        <mxCell id="0HkNrGb_BGfiUskiQbqX-10" value="Pub/Sub" style="sketch=0;html=1;verticalAlign=top;labelPosition=center;verticalLabelPosition=bottom;align=center;spacingTop=-6;fontSize=11;fontStyle=1;fontColor=#999999;shape=image;aspect=fixed;imageAspect=0;image=data:image/svg+xml,PHN2ZyB4bWxucz0iaHR0cDovL3d3dy53My5vcmcvMjAwMC9zdmciIHhtbG5zOnY9Imh0dHBzOi8vdmVjdGEuaW8vbmFubyIgd2lkdGg9IjE4LjMxOTk5OTY5NDgyNDIyIiBoZWlnaHQ9IjIwLjAwMDAwMTkwNzM0ODYzMyIgdmlld0JveD0iMCAwIDE4LjMxOTk5OTY5NDgyNDIyIDIwLjAwMDAwMTkwNzM0ODYzMyI+JiN4YTsJPHN0eWxlIHR5cGU9InRleHQvY3NzIj4mI3hhOwkuc3Qwe2ZpbGw6IzY2OWRmNjt9JiN4YTsJLnN0MXtmaWxsOiM0Mjg1ZjQ7fSYjeGE7CS5zdDJ7ZmlsbDojYWVjYmZhO30mI3hhOwk8L3N0eWxlPiYjeGE7CTxkZWZzPiYjeGE7CQk8ZmlsdGVyIGlkPSJBIiB4PSI0LjY0IiB5PSI0LjE5IiB3aWR0aD0iMTQuNzMiIGhlaWdodD0iMTIuNzYiIGZpbHRlclVuaXRzPSJ1c2VyU3BhY2VPblVzZSIgY29sb3ItaW50ZXJwb2xhdGlvbi1maWx0ZXJzPSJzUkdCIj4mI3hhOwkJCTxmZUZsb29kIGZsb29kLWNvbG9yPSIjZmZmIi8+JiN4YTsJCQk8ZmVCbGVuZCBpbj0iU291cmNlR3JhcGhpYyIvPiYjeGE7CQk8L2ZpbHRlcj4mI3hhOwkJPG1hc2sgaWQ9IkIiIHg9IjQuNjQiIHk9IjQuMTkiIHdpZHRoPSIxNC43MyIgaGVpZ2h0PSIxMi43NiIgbWFza1VuaXRzPSJ1c2VyU3BhY2VPblVzZSI+JiN4YTsJCQk8Y2lyY2xlIGN4PSIxMiIgY3k9IjEyLjIzIiByPSIzLjU4IiBmaWx0ZXI9InVybCgjQSkiLz4mI3hhOwkJPC9tYXNrPiYjeGE7CTwvZGVmcz4mI3hhOwk8ZyBjbGFzcz0ic3QwIj4mI3hhOwkJPGNpcmNsZSBjeD0iMTYuMTMiIGN5PSI2LjIxIiByPSIxLjcyIi8+JiN4YTsJCTxjaXJjbGUgY3g9IjIuMTkiIGN5PSI2LjIxIiByPSIxLjcyIi8+JiN4YTsJCTxjaXJjbGUgY3g9IjkuMTYiIGN5PSIxOC4yOCIgcj0iMS43MiIvPiYjeGE7CTwvZz4mI3hhOwk8ZyBtYXNrPSJ1cmwoI0IpIiB0cmFuc2Zvcm09InRyYW5zbGF0ZSgtMi44NCAtMikiPiYjeGE7CQk8cGF0aCB0cmFuc2Zvcm09Im1hdHJpeCguNSAtLjg3IC44NyAuNSAtNC41OSAyMC41MykiIGQ9Ik0xNC42OSAxMC4yMmgxLjU5djguMDRoLTEuNTl6IiBjbGFzcz0ic3QxIi8+JiN4YTsJCTxwYXRoIHRyYW5zZm9ybT0icm90YXRlKDMzMCA4LjUyMyAxNC4yNDQpIiBkPSJNNC40OSAxMy40NWg4LjA0djEuNTlINC40OXoiIGNsYXNzPSJzdDEiLz4mI3hhOwkJPHBhdGggZD0iTTExLjIgNC4xOWgxLjU5djguMDRIMTEuMnoiIGNsYXNzPSJzdDEiLz4mI3hhOwk8L2c+JiN4YTsJPGcgY2xhc3M9InN0MiI+JiN4YTsJCTxjaXJjbGUgY3g9IjkuMTYiIGN5PSIxMC4yMyIgcj0iMi43OCIvPiYjeGE7CQk8Y2lyY2xlIGN4PSIyLjE5IiBjeT0iMTQuMjUiIHI9IjIuMTkiLz4mI3hhOwkJPGNpcmNsZSBjeD0iMTYuMTMiIGN5PSIxNC4yNSIgcj0iMi4xOSIvPiYjeGE7CQk8Y2lyY2xlIGN4PSI5LjE2IiBjeT0iMi4xOSIgcj0iMi4xOSIvPiYjeGE7CTwvZz4mI3hhOzwvc3ZnPg==;" vertex="1" parent="1">
          <mxGeometry x="460" y="696" width="38" height="42" as="geometry" />
        </mxCell>
        <mxCell id="0HkNrGb_BGfiUskiQbqX-13" value="" style="rhombus;whiteSpace=wrap;html=1;" vertex="1" parent="1">
          <mxGeometry x="323" y="691" width="17" height="60" as="geometry" />
        </mxCell>
      </root>
    </mxGraphModel>
  </diagram>
</mxfile>
